{
  "asset": {
    "version": "2.0",
    "generator": "THREE.GLTFExporter r168"
  },
  "scenes": [
    {
      "name": "Scene",
      "nodes": [
        9
      ]
    }
  ],
  "scene": 0,
  "nodes": [
    {
      "matrix": [
        0.9961946980917455,
        0.004561379138762708,
        -0.0870362988312832,
        0,
        0,
        0.9986295347545738,
        0.05233595624294384,
        0,
        0.08715574274765817,
        -0.05213680212878225,
        0.994829447880333,
        0,
        0,
        0,
        -4.938986468727435,
        1
      ],
      "name": "Box",
      "mesh": 0
    },
    {
      "matrix": [
        0.9961946980917455,
        0.004561379138762708,
        0.0870362988312832,
        0,
        0,
        0.9986295347545738,
        -0.05233595624294384,
        0,
        -0.08715574274765817,
        0.05213680212878225,
        0.994829447880333,
        0,
        0,
        0,
        4.980178064487039,
        1
      ],
      "name": "Box",
      "mesh": 1
    },
    {
      "matrix": [
        2.220446049250313e-16,
        1,
        0,
        0,
        -1.8434032228961812,
        4.09317740345512e-16,
        0,
        0,
        0,
        0,
        0.7342905272234647,
        0,
        4.2516891308314655,
        0.369773714144904,
        0,
        1
      ],
      "name": "Capsule",
      "mesh": 2
    },
    {
      "matrix": [
        2.220446049250313e-16,
        1,
        0,
        0,
        -4.285552783206985,
        9.515838746325632e-16,
        0,
        0,
        0,
        0,
        0.7342905272234647,
        0,
        0.11904242923479869,
        -0.008659367540776342,
        0,
        1
      ],
      "name": "Capsule",
      "mesh": 2
    },
    {
      "matrix": [
        2.3593466682150184e-16,
        1.0625552775810978,
        0,
        0,
        -1.5255701689624492,
        3.387446254526803e-16,
        0,
        0,
        0,
        0,
        0.6468956467077124,
        0,
        -4.8792697901676245,
        0.897286355082068,
        0,
        1
      ],
      "name": "Capsule",
      "mesh": 3
    },
    {
      "matrix": [
        2.220446049250313e-16,
        1,
        0,
        0,
        -0.8987109013973152,
        1.9955390704258563e-16,
        0,
        0,
        0,
        0,
        1,
        0,
        -4.966275002630192,
        1.2895817412198718,
        0,
        1
      ],
      "name": "Capsule",
      "mesh": 4
    },
    {
      "matrix": [
        1,
        0,
        0,
        0,
        0,
        0.7071067811865475,
        -0.7071067811865476,
        0,
        0,
        3.0894383993820806,
        3.08943839938208,
        0,
        -5.398560978659176,
        1.9414990093706548,
        1.9740371875024616,
        1
      ],
      "name": "Box",
      "mesh": 5
    },
    {
      "matrix": [
        1,
        0,
        0,
        0,
        0,
        0.7071067811865475,
        0.7071067811865476,
        0,
        0,
        -3.0894383993820806,
        3.08943839938208,
        0,
        -5.398560978659176,
        1.9414990093706548,
        -1.9860596257593452,
        1
      ],
      "name": "Box",
      "mesh": 5
    },
    {
      "matrix": [
        1,
        0,
        0,
        0,
        0,
        1,
        0,
        0,
        0,
        0,
        1,
        0,
        -7.509822331503938,
        1.3100593960315727,
        0,
        1
      ],
      "name": "PointLight",
      "extensions": {
        "KHR_lights_punctual": {
          "light": 0
        }
      }
    },
    {
      "name": "Drone-L",
      "children": [
        0,
        1,
        2,
        3,
        4,
        5,
        6,
        7,
        8
      ]
    }
  ],
  "bufferViews": [
    {
      "buffer": 0,
      "byteOffset": 0,
      "byteLength": 288,
      "target": 34962,
      "byteStride": 12
    },
    {
      "buffer": 0,
      "byteOffset": 288,
      "byteLength": 288,
      "target": 34962,
      "byteStride": 12
    },
    {
      "buffer": 0,
      "byteOffset": 576,
      "byteLength": 192,
      "target": 34962,
      "byteStride": 8
    },
    {
      "buffer": 0,
      "byteOffset": 768,
      "byteLength": 72,
      "target": 34963
    },
    {
      "buffer": 0,
      "byteOffset": 840,
      "byteLength": 288,
      "target": 34962,
      "byteStride": 12
    },
    {
      "buffer": 0,
      "byteOffset": 1128,
      "byteLength": 288,
      "target": 34962,
      "byteStride": 12
    },
    {
      "buffer": 0,
      "byteOffset": 1416,
      "byteLength": 192,
      "target": 34962,
      "byteStride": 8
    },
    {
      "buffer": 0,
      "byteOffset": 1608,
      "byteLength": 72,
      "target": 34963
    },
    {
      "buffer": 0,
      "byteOffset": 1680,
      "byteLength": 1944,
      "target": 34962,
      "byteStride": 12
    },
    {
      "buffer": 0,
      "byteOffset": 3624,
      "byteLength": 1296,
      "target": 34962,
      "byteStride": 8
    },
    {
      "buffer": 0,
      "byteOffset": 4920,
      "byteLength": 1944,
      "target": 34962,
      "byteStride": 12
    },
    {
      "buffer": 0,
      "byteOffset": 6864,
      "byteLength": 1632,
      "target": 34963
    },
    {
      "buffer": 0,
      "byteOffset": 8496,
      "byteLength": 1944,
      "target": 34962,
      "byteStride": 12
    },
    {
      "buffer": 0,
      "byteOffset": 10440,
      "byteLength": 1296,
      "target": 34962,
      "byteStride": 8
    },
    {
      "buffer": 0,
      "byteOffset": 11736,
      "byteLength": 1944,
      "target": 34962,
      "byteStride": 12
    },
    {
      "buffer": 0,
      "byteOffset": 13680,
      "byteLength": 1632,
      "target": 34963
    },
    {
      "buffer": 0,
      "byteOffset": 15312,
      "byteLength": 1944,
      "target": 34962,
      "byteStride": 12
    },
    {
      "buffer": 0,
      "byteOffset": 17256,
      "byteLength": 1296,
      "target": 34962,
      "byteStride": 8
    },
    {
      "buffer": 0,
      "byteOffset": 18552,
      "byteLength": 1944,
      "target": 34962,
      "byteStride": 12
    },
    {
      "buffer": 0,
      "byteOffset": 20496,
      "byteLength": 1632,
      "target": 34963
    },
    {
      "buffer": 0,
      "byteOffset": 22128,
      "byteLength": 288,
      "target": 34962,
      "byteStride": 12
    },
    {
      "buffer": 0,
      "byteOffset": 22416,
      "byteLength": 288,
      "target": 34962,
      "byteStride": 12
    },
    {
      "buffer": 0,
      "byteOffset": 22704,
      "byteLength": 192,
      "target": 34962,
      "byteStride": 8
    },
    {
      "buffer": 0,
      "byteOffset": 22896,
      "byteLength": 72,
      "target": 34963
    }
  ],
  "buffers": [
    {
      "byteLength": 22968,
      "uri": "data:application/octet-stream;base64,"
    }
  ],
  "accessors": [
    {
      "bufferView": 0,
      "componentType": 5126,
      "count": 24,
      "max": [
        0.75,
        0.07500000298023224,
        5
      ],
      "min": [
        -0.75,
        -0.07500000298023224,
        -5
      ],
      "type": "VEC3"
    },
    {
      "bufferView": 1,
      "componentType": 5126,
      "count": 24,
      "max": [
        1,
        1,
        1
      ],
      "min": [
        -1,
        -1,
        -1
      ],
      "type": "VEC3"
    },
    {
      "bufferView": 2,
      "componentType": 5126,
      "count": 24,
      "max": [
        1,
        1
      ],
      "min": [
        0,
        0
      ],
      "type": "VEC2"
    },
    {
      "bufferView": 3,
      "componentType": 5123,
      "count": 36,
      "max": [
        23
      ],
      "min": [
        0
      ],
      "type": "SCALAR"
    },
    {
      "bufferView": 4,
      "componentType": 5126,
      "count": 24,
      "max": [
        0.75,
        0.07500000298023224,
        5
      ],
      "min": [
        -0.75,
        -0.07500000298023224,
        -5
      ],
      "type": "VEC3"
    },
    {
      "bufferView": 5,
      "componentType": 5126,
      "count": 24,
      "max": [
        1,
        1,
        1
      ],
      "min": [
        -1,
        -1,
        -1
      ],
      "type": "VEC3"
    },
    {
      "bufferView": 6,
      "componentType": 5126,
      "count": 24,
      "max": [
        1,
        1
      ],
      "min": [
        0,
        0
      ],
      "type": "VEC2"
    },
    {
      "bufferView": 7,
      "componentType": 5123,
      "count": 36,
      "max": [
        23
      ],
      "min": [
        0
      ],
      "type": "SCALAR"
    },
    {
      "bufferView": 8,
      "componentType": 5126,
      "count": 162,
      "max": [
        1,
        1.5,
        1
      ],
      "min": [
        -1,
        -1.5,
        -1
      ],
      "type": "VEC3"
    },
    {
      "bufferView": 9,
      "componentType": 5126,
      "count": 162,
      "max": [
        1,
        1
      ],
      "min": [
        0,
        0
      ],
      "type": "VEC2"
    },
    {
      "bufferView": 10,
      "componentType": 5126,
      "count": 162,
      "max": [
        0.999870777130127,
        0.9951847195625305,
        0.999870777130127
      ],
      "min": [
        -0.999870777130127,
        -0.9951847195625305,
        -0.999870777130127
      ],
      "type": "VEC3"
    },
    {
      "bufferView": 11,
      "componentType": 5123,
      "count": 816,
      "max": [
        161
      ],
      "min": [
        0
      ],
      "type": "SCALAR"
    },
    {
      "bufferView": 12,
      "componentType": 5126,
      "count": 162,
      "max": [
        1,
        1.5,
        1
      ],
      "min": [
        -1,
        -1.5,
        -1
      ],
      "type": "VEC3"
    },
    {
      "bufferView": 13,
      "componentType": 5126,
      "count": 162,
      "max": [
        1,
        1
      ],
      "min": [
        0,
        0
      ],
      "type": "VEC2"
    },
    {
      "bufferView": 14,
      "componentType": 5126,
      "count": 162,
      "max": [
        0.999870777130127,
        0.9951847195625305,
        0.999870777130127
      ],
      "min": [
        -0.999870777130127,
        -0.9951847195625305,
        -0.999870777130127
      ],
      "type": "VEC3"
    },
    {
      "bufferView": 15,
      "componentType": 5123,
      "count": 816,
      "max": [
        161
      ],
      "min": [
        0
      ],
      "type": "SCALAR"
    },
    {
      "bufferView": 16,
      "componentType": 5126,
      "count": 162,
      "max": [
        0.49000000953674316,
        2.740000009536743,
        0.49000000953674316
      ],
      "min": [
        -0.49000000953674316,
        -2.740000009536743,
        -0.49000000953674316
      ],
      "type": "VEC3"
    },
    {
      "bufferView": 17,
      "componentType": 5126,
      "count": 162,
      "max": [
        1,
        1
      ],
      "min": [
        0,
        0
      ],
      "type": "VEC2"
    },
    {
      "bufferView": 18,
      "componentType": 5126,
      "count": 162,
      "max": [
        0.9999979138374329,
        0.9951847195625305,
        0.9999979138374329
      ],
      "min": [
        -0.9999979138374329,
        -0.9951847195625305,
        -0.9999979138374329
      ],
      "type": "VEC3"
    },
    {
      "bufferView": 19,
      "componentType": 5123,
      "count": 816,
      "max": [
        161
      ],
      "min": [
        0
      ],
      "type": "SCALAR"
    },
    {
      "bufferView": 20,
      "componentType": 5126,
      "count": 24,
      "max": [
        0.5,
        0.05999999865889549,
        0.5
      ],
      "min": [
        -0.5,
        -0.05999999865889549,
        -0.5
      ],
      "type": "VEC3"
    },
    {
      "bufferView": 21,
      "componentType": 5126,
      "count": 24,
      "max": [
        1,
        1,
        1
      ],
      "min": [
        -1,
        -1,
        -1
      ],
      "type": "VEC3"
    },
    {
      "bufferView": 22,
      "componentType": 5126,
      "count": 24,
      "max": [
        1,
        1
      ],
      "min": [
        0,
        0
      ],
      "type": "VEC2"
    },
    {
      "bufferView": 23,
      "componentType": 5123,
      "count": 36,
      "max": [
        23
      ],
      "min": [
        0
      ],
      "type": "SCALAR"
    }
  ],
  "materials": [
    {
      "pbrMetallicRoughness": {
        "metallicFactor": 0,
        "roughnessFactor": 1
      }
    },
    {
      "pbrMetallicRoughness": {
        "metallicFactor": 0,
        "roughnessFactor": 1
      }
    },
    {
      "pbrMetallicRoughness": {
        "metallicFactor": 0,
        "roughnessFactor": 1
      }
    },
    {
      "pbrMetallicRoughness": {
        "baseColorFactor": [
          0.2746773120495699,
          0.2746773120495699,
          0.2746773120495699,
          1
        ],
        "metallicFactor": 0,
        "roughnessFactor": 1
      }
    },
    {
      "pbrMetallicRoughness": {
        "metallicFactor": 0,
        "roughnessFactor": 1
      }
    }
  ],
  "meshes": [
    {
      "primitives": [
        {
          "mode": 4,
          "attributes": {
            "POSITION": 0,
            "NORMAL": 1,
            "TEXCOORD_0": 2
          },
          "indices": 3,
          "material": 0
        }
      ]
    },
    {
      "primitives": [
        {
          "mode": 4,
          "attributes": {
            "POSITION": 4,
            "NORMAL": 5,
            "TEXCOORD_0": 6
          },
          "indices": 7,
          "material": 0
        }
      ]
    },
    {
      "primitives": [
        {
          "mode": 4,
          "attributes": {
            "POSITION": 8,
            "TEXCOORD_0": 9,
            "NORMAL": 10
          },
          "indices": 11,
          "material": 1
        }
      ]
    },
    {
      "primitives": [
        {
          "mode": 4,
          "attributes": {
            "POSITION": 12,
            "TEXCOORD_0": 13,
            "NORMAL": 14
          },
          "indices": 15,
          "material": 2
        }
      ]
    },
    {
      "primitives": [
        {
          "mode": 4,
          "attributes": {
            "POSITION": 16,
            "TEXCOORD_0": 17,
            "NORMAL": 18
          },
          "indices": 19,
          "material": 3
        }
      ]
    },
    {
      "primitives": [
        {
          "mode": 4,
          "attributes": {
            "POSITION": 20,
            "NORMAL": 21,
            "TEXCOORD_0": 22
          },
          "indices": 23,
          "material": 4
        }
      ]
    }
  ],
  "extensions": {
    "KHR_lights_punctual": {
      "lights": [
        {
          "name": "PointLight",
          "color": [
            0.7991027380100881,
            0.16202937562896222,
            0.004024717016506897
          ],
          "intensity": 1,
          "type": "point"
        }
      ]
    }
  },
  "extensionsUsed": [
    "KHR_lights_punctual"
  ]
}