{
  "accessors": [
    {
      "bufferView": 2,
      "componentType": 5126,
      "count": 4225,
      "max": [
        11026.318359375,
        5603.77880859375,
        10161.8056640625
      ],
      "min": [
        -13433.5341796875,
        3243.14208984375,
        -9406.078125
      ],
      "type": "VEC3"
    },
    {
      "bufferView": 2,
      "byteOffset": 50700,
      "componentType": 5126,
      "count": 4225,
      "max": [
        0.514225959777832,
        0.9999980926513672,
        0.46994060277938843
      ],
      "min": [
        -0.4615914225578308,
        0.8315609693527222,
        -0.4946863651275635
      ],
      "type": "VEC3"
    },
    {
      "bufferView": 3,
      "componentType": 5126,
      "count": 4225,
      "max": [
        1.0,
        0.4626755714416504,
        0.03395422548055649,
        1.0
      ],
      "min": [
        0.8503246903419495,
        -0.5262556672096252,
        -0.0373089425265789,
        1.0
      ],
      "type": "VEC4"
    },
    {
      "bufferView": 1,
      "componentType": 5126,
      "count": 4225,
      "max": [
        1.0000001192092896,
        1.0000001192092896
      ],
      "min": [
        1.1111627173931993e-08,
        -1.1810768363318402e-08
      ],
      "type": "VEC2"
    },
    {
      "bufferView": 1,
      "byteOffset": 33800,
      "componentType": 5126,
      "count": 4225,
      "max": [
        0.9975237846374512,
        0.9982461929321289
      ],
      "min": [
        0.002535388572141528,
        0.004401474259793758
      ],
      "type": "VEC2"
    },
    {
      "bufferView": 1,
      "byteOffset": 67600,
      "componentType": 5126,
      "count": 4225,
      "max": [
        1.0000001192092896,
        1.0000001192092896
      ],
      "min": [
        1.1111627173931993e-08,
        -1.1810768363318402e-08
      ],
      "type": "VEC2"
    },
    {
      "bufferView": 0,
      "componentType": 5125,
      "count": 24576,
      "type": "SCALAR"
    }
  ],
  "asset": {
    "extras": {
      "author": "shubh sharma (https://sketchfab.com/Shubhsharma)",
      "license": "SKETCHFAB Standard (https://sketchfab.com/licenses)",
      "source": "https://sketchfab.com/3d-models/mountain-landscape-c8ca51add6fb4552a006fa7ab4460d4a",
      "title": "Mountain Landscape"
    },
    "generator": "Sketchfab-16.31.0",
    "version": "2.0"
  },
  "bufferViews": [
    {
      "buffer": 0,
      "byteLength": 98304,
      "name": "floatBufferViews",
      "target": 34963
    },
    {
      "buffer": 0,
      "byteLength": 101400,
      "byteOffset": 98304,
      "byteStride": 8,
      "name": "floatBufferViews",
      "target": 34962
    },
    {
      "buffer": 0,
      "byteLength": 101400,
      "byteOffset": 199704,
      "byteStride": 12,
      "name": "floatBufferViews",
      "target": 34962
    },
    {
      "buffer": 0,
      "byteLength": 67600,
      "byteOffset": 301104,
      "byteStride": 16,
      "name": "floatBufferViews",
      "target": 34962
    }
  ],
  "buffers": [
    {
      "byteLength": 368704,
      "uri": "scene.bin"
    }
  ],
  "images": [
    {
      "uri": "textures/rastMat_baseColor.png"
    }
  ],
  "materials": [
    {
      "doubleSided": true,
      "name": "rastMat",
      "normalTexture": {
        "index": 0
      },
      "pbrMetallicRoughness": {
        "baseColorTexture": {
          "index": 0
        },
        "metallicFactor": 0.0,
        "roughnessFactor": 0.5
      }
    }
  ],
  "meshes": [
    {
      "name": "Object_0",
      "primitives": [
        {
          "attributes": {
            "NORMAL": 1,
            "POSITION": 0,
            "TANGENT": 2,
            "TEXCOORD_0": 3,
            "TEXCOORD_1": 4,
            "TEXCOORD_2": 5
          },
          "indices": 6,
          "material": 0,
          "mode": 4
        }
      ]
    }
  ],
  "nodes": [
    {
      "children": [
        1
      ],
      "matrix": [
        1.0,
        0.0,
        0.0,
        0.0,
        0.0,
        2.220446049250313e-16,
        -1.0,
        0.0,
        0.0,
        1.0,
        2.220446049250313e-16,
        0.0,
        0.0,
        0.0,
        0.0,
        1.0
      ],
      "name": "Sketchfab_model"
    },
    {
      "children": [
        2
      ],
      "name": "root"
    },
    {
      "children": [
        3
      ],
      "matrix": [
        1.0,
        0.0,
        0.0,
        0.0,
        0.0,
        2.220446049250313e-16,
        1.0,
        0.0,
        0.0,
        -1.0,
        2.220446049250313e-16,
        0.0,
        0.0,
        0.0,
        0.0,
        1.0
      ],
      "name": "GLTF_SceneRootNode"
    },
    {
      "children": [
        4
      ],
      "name": "EXPORT_GOOGLE_SAT_WM_1"
    },
    {
      "mesh": 0,
      "name": "Object_4"
    }
  ],
  "samplers": [
    {
      "magFilter": 9729,
      "minFilter": 9987,
      "wrapS": 33071,
      "wrapT": 33071
    }
  ],
  "scene": 0,
  "scenes": [
    {
      "name": "Sketchfab_Scene",
      "nodes": [
        0
      ]
    }
  ],
  "textures": [
    {
      "sampler": 0,
      "source": 0
    }
  ]
}
